M48
;Layer_Color=9474304
;FILE_FORMAT=2:4
INCH,LZ
T11F00S00C0.0050
%
G90
G05
T11
G00X157592Y050268
M15
G01X157597Y050264
G01X157824Y050282
G01X158046Y050336
G01X158257Y050423
G01X158452Y050543
G01X158624Y05069
G01X159247Y05132
G01X159253Y05132
G01X159411Y051501
G01X159544Y0517
G01X15965Y051916
G01X159727Y052143
G01X159774Y052378
G01X159789Y052616
G01X159785Y091275
G01X159789Y091279
G01X159773Y091519
G01X159726Y091754
G01X159649Y091981
G01X159542Y092196
G01X159409Y092396
G01X159252Y092575
G01X158623Y093199
G01X158622Y093205
G01X158449Y093353
G01X158254Y093472
G01X158043Y093559
G01X157821Y093612
G01X157595Y09363
G01X016771Y093625
G01X016766Y09363
G01X016539Y093612
G01X016317Y093558
G01X016106Y09347
G01X015911Y093351
G01X015739Y093204
G01X015116Y092574
G01X01511Y092574
G01X014952Y092393
G01X014819Y092194
G01X014713Y091978
G01X014636Y091751
G01X014589Y091515
G01X014574Y091278
G01X014578Y052619
G01X014574Y052615
G01X01459Y052375
G01X014637Y05214
G01X014714Y051913
G01X014821Y051697
G01X014954Y051498
G01X015111Y051319
G01X01574Y050695
G01X015741Y050689
G01X015914Y050541
G01X016109Y050422
G01X01632Y050335
G01X016542Y050282
G01X016768Y050264
G01X157592Y050268
M16
M17
M30
