G04 Layer_Color=13097436*
%FSLAX25Y25*%
%MOIN*%
G70*
G01*
G75*
%ADD36C,0.00394*%
%ADD55C,0.02362*%
%ADD56C,0.00984*%
%ADD60C,0.00787*%
%ADD61C,0.00591*%
%ADD63R,0.02165X0.06890*%
D36*
X226244Y822913D02*
X228311Y822913D01*
X226244Y822913D02*
X226244Y823996D01*
X244847Y822913D02*
X246913Y822913D01*
X246913Y823996D01*
X226244Y836496D02*
X228311Y836496D01*
X226244Y835413D02*
X226244Y836496D01*
X246913Y835413D02*
X246913Y836496D01*
X244847Y836496D02*
X246913Y836496D01*
X1597602Y912776D02*
X1597574Y913788D01*
X1597489Y914798D01*
X1597347Y915801D01*
X1597150Y916794D01*
X1596897Y917775D01*
X1596589Y918740D01*
X1596228Y919687D01*
X1595814Y920611D01*
X1595349Y921511D01*
X1594834Y922384D01*
X1594272Y923226D01*
X1593662Y924035D01*
X1593009Y924809D01*
X1592313Y925545D01*
X1586030Y931828D02*
X1585285Y932522D01*
X1584493Y933160D01*
X1583657Y933741D01*
X1582782Y934260D01*
X1581872Y934716D01*
X1580931Y935105D01*
X1579965Y935426D01*
X1578979Y935678D01*
X1577978Y935859D01*
X1576966Y935968D01*
X1575949Y936004D01*
X1592313Y513392D02*
X1593009Y514128D01*
X1593662Y514902D01*
X1594272Y515711D01*
X1594834Y516553D01*
X1595349Y517426D01*
X1595814Y518326D01*
X1596228Y519250D01*
X1596589Y520197D01*
X1596897Y521162D01*
X1597150Y522143D01*
X1597347Y523136D01*
X1597489Y524139D01*
X1597574Y525149D01*
X1597602Y526161D01*
X1575949Y502933D02*
X1576966Y502969D01*
X1577978Y503078D01*
X1578979Y503259D01*
X1579965Y503511D01*
X1580931Y503832D01*
X1581872Y504221D01*
X1582782Y504677D01*
X1583657Y505196D01*
X1584493Y505777D01*
X1585285Y506415D01*
X1586030Y507109D01*
X146028Y526161D02*
X146056Y525149D01*
X146141Y524139D01*
X146283Y523136D01*
X146480Y522143D01*
X146733Y521162D01*
X147041Y520197D01*
X147402Y519250D01*
X147816Y518326D01*
X148281Y517426D01*
X148796Y516553D01*
X149358Y515711D01*
X149968Y514902D01*
X150621Y514128D01*
X151317Y513392D01*
X157600Y507109D02*
X158345Y506415D01*
X159137Y505777D01*
X159973Y505196D01*
X160848Y504677D01*
X161758Y504221D01*
X162699Y503832D01*
X163664Y503511D01*
X164650Y503259D01*
X165652Y503078D01*
X166664Y502969D01*
X167681Y502933D01*
X167681Y936004D02*
X166664Y935968D01*
X165652Y935859D01*
X164650Y935678D01*
X163664Y935426D01*
X162699Y935105D01*
X161758Y934716D01*
X160848Y934260D01*
X159973Y933741D01*
X159137Y933160D01*
X158345Y932522D01*
X157600Y931828D01*
X151317Y925545D02*
X150621Y924809D01*
X149968Y924035D01*
X149358Y923226D01*
X148796Y922384D01*
X148281Y921511D01*
X147816Y920611D01*
X147402Y919687D01*
X147041Y918740D01*
X146733Y917775D01*
X146480Y916794D01*
X146283Y915801D01*
X146141Y914798D01*
X146056Y913788D01*
X146028Y912776D01*
X146028Y526161D02*
X146028Y912776D01*
X167681Y502933D02*
X1575949Y502933D01*
X1597602Y526161D02*
X1597602Y912776D01*
X167681Y936004D02*
X169256Y936004D01*
X1574374Y936004D01*
X1575949Y936004D01*
X1586030Y931828D02*
X1592313Y925545D01*
X1586030Y507109D02*
X1592313Y513392D01*
X151317Y513392D02*
X157600Y507109D01*
X151317Y925545D02*
X157600Y931828D01*
D55*
X245043Y856673D02*
X244599Y857597D01*
X243599Y857825D01*
X242798Y857186D01*
X242798Y856161D01*
X243599Y855522D01*
X244599Y855750D01*
X245043Y856673D01*
D56*
X716028Y903228D02*
X715289Y903654D01*
X715289Y902802D01*
X716028Y903228D01*
X250555Y848405D02*
X249817Y848832D01*
X249817Y847979D01*
X250555Y848405D01*
D60*
X694846Y907658D02*
X694846Y920256D01*
X714532Y907658D02*
X714532Y920256D01*
X694846Y920256D02*
X714532Y920256D01*
X694846Y907658D02*
X714532Y907658D01*
X265319Y866122D02*
X265319Y866516D01*
X262169Y866122D02*
X262169Y866516D01*
X223783Y852736D02*
X223783Y876752D01*
X247799Y852736D02*
X247799Y876752D01*
X223783Y876752D02*
X247799Y876752D01*
X223783Y852736D02*
X247799Y852736D01*
X804721Y916319D02*
X810627Y916319D01*
X782674Y927343D02*
X782674Y937185D01*
X812595Y937185D01*
X812595Y927343D02*
X812595Y937185D01*
X782674Y927343D02*
X812595Y927343D01*
X774768Y916319D02*
X780673Y916319D01*
X752720Y927343D02*
X752720Y937185D01*
X782642Y937185D01*
X782642Y927343D02*
X782642Y937185D01*
X752720Y927343D02*
X782642Y927343D01*
X343272Y892795D02*
X343272Y899685D01*
X348783Y899685D01*
X343272Y892795D02*
X348783Y892795D01*
X423587Y892795D02*
X423587Y899685D01*
X429098Y899685D01*
X423587Y892795D02*
X429098Y892795D01*
X501539Y893189D02*
X501539Y900079D01*
X507051Y900079D01*
X501539Y893189D02*
X507051Y893189D01*
X579886Y892795D02*
X579886Y899685D01*
X585398Y899685D01*
X579886Y892795D02*
X585398Y892795D01*
X659413Y892402D02*
X659413Y899291D01*
X664925Y899291D01*
X659413Y892402D02*
X664925Y892402D01*
X738154Y892795D02*
X738154Y899685D01*
X743665Y899685D01*
X738154Y892795D02*
X743665Y892795D01*
X816500Y892795D02*
X816500Y899685D01*
X822012Y899685D01*
X816500Y892795D02*
X822012Y892795D01*
X895634Y892795D02*
X895634Y899685D01*
X901146Y899685D01*
X895634Y892795D02*
X901146Y892795D01*
X974374Y892402D02*
X974374Y899291D01*
X979886Y899291D01*
X974374Y892402D02*
X979886Y892402D01*
X1053114Y892795D02*
X1053114Y899685D01*
X1058626Y899685D01*
X1053114Y892795D02*
X1058626Y892795D01*
X1131854Y892402D02*
X1131854Y899291D01*
X1137366Y899291D01*
X1131854Y892402D02*
X1137366Y892402D01*
X1210201Y893189D02*
X1210201Y900079D01*
X1215713Y900079D01*
X1210201Y893189D02*
X1215713Y893189D01*
X1288547Y892795D02*
X1288547Y899685D01*
X1294059Y899685D01*
X1288547Y892795D02*
X1294059Y892795D01*
X1407445Y893189D02*
X1407445Y900079D01*
X1412957Y900079D01*
X1407445Y893189D02*
X1412957Y893189D01*
X360988Y814843D02*
X360988Y821732D01*
X366500Y821732D01*
X360988Y814843D02*
X366500Y814843D01*
X458232Y814843D02*
X458232Y821732D01*
X463744Y821732D01*
X458232Y814843D02*
X463744Y814843D01*
X536972Y814843D02*
X536972Y821732D01*
X542484Y821732D01*
X536972Y814843D02*
X542484Y814843D01*
X615319Y814843D02*
X615319Y821732D01*
X620831Y821732D01*
X615319Y814843D02*
X620831Y814843D01*
X694453Y814843D02*
X694453Y821732D01*
X699965Y821732D01*
X694453Y814843D02*
X699965Y814843D01*
X772799Y815236D02*
X772799Y822126D01*
X778311Y822126D01*
X772799Y815236D02*
X778311Y815236D01*
X851933Y814055D02*
X851933Y820945D01*
X857445Y820945D01*
X851933Y814055D02*
X857445Y814055D01*
X930673Y814843D02*
X930673Y821732D01*
X936185Y821732D01*
X930673Y814843D02*
X936185Y814843D01*
X1009413Y814843D02*
X1009413Y821732D01*
X1014925Y821732D01*
X1009413Y814843D02*
X1014925Y814843D01*
X1088153Y814843D02*
X1088153Y821732D01*
X1093665Y821732D01*
X1088153Y814843D02*
X1093665Y814843D01*
X1166500Y814843D02*
X1166500Y821732D01*
X1172012Y821732D01*
X1166500Y814843D02*
X1172012Y814843D01*
X1245634Y814843D02*
X1245634Y821732D01*
X1251146Y821732D01*
X1245634Y814843D02*
X1251146Y814843D01*
X1323980Y814449D02*
X1323980Y821339D01*
X1329492Y821339D01*
X1323980Y814449D02*
X1329492Y814449D01*
X1420831Y814843D02*
X1420831Y821732D01*
X1426342Y821732D01*
X1420831Y814843D02*
X1426342Y814843D01*
X370831Y736496D02*
X370831Y743386D01*
X376343Y743386D01*
X370831Y736496D02*
X376343Y736496D01*
X475949Y736890D02*
X475949Y743780D01*
X481461Y743780D01*
X475949Y736890D02*
X481461Y736890D01*
X554689Y736496D02*
X554689Y743386D01*
X560201Y743386D01*
X554689Y736496D02*
X560201Y736496D01*
X633035Y736496D02*
X633035Y743386D01*
X638547Y743386D01*
X633035Y736496D02*
X638547Y736496D01*
X712169Y736496D02*
X712169Y743386D01*
X717681Y743386D01*
X712169Y736496D02*
X717681Y736496D01*
X790909Y736496D02*
X790909Y743386D01*
X796421Y743386D01*
X790909Y736496D02*
X796421Y736496D01*
X869650Y736890D02*
X869650Y743780D01*
X875161Y743780D01*
X869650Y736890D02*
X875161Y736890D01*
X948390Y736890D02*
X948390Y743780D01*
X953902Y743780D01*
X948390Y736890D02*
X953902Y736890D01*
X1026736Y736496D02*
X1026736Y743386D01*
X1032248Y743386D01*
X1026736Y736496D02*
X1032248Y736496D01*
X1105476Y736496D02*
X1105476Y743386D01*
X1110988Y743386D01*
X1105476Y736496D02*
X1110988Y736496D01*
X1184216Y736496D02*
X1184216Y743386D01*
X1189728Y743386D01*
X1184216Y736496D02*
X1189728Y736496D01*
X1263350Y736496D02*
X1263350Y743386D01*
X1268862Y743386D01*
X1263350Y736496D02*
X1268862Y736496D01*
X1386185Y736496D02*
X1386185Y743386D01*
X1391697Y743386D01*
X1386185Y736496D02*
X1391697Y736496D01*
X388547Y658937D02*
X388547Y665827D01*
X394059Y665827D01*
X388547Y658937D02*
X394059Y658937D01*
X511382Y658937D02*
X511382Y665827D01*
X516894Y665827D01*
X511382Y658937D02*
X516894Y658937D01*
X590122Y658937D02*
X590122Y665827D01*
X595634Y665827D01*
X590122Y658937D02*
X595634Y658937D01*
X668862Y658937D02*
X668862Y665827D01*
X674374Y665827D01*
X668862Y658937D02*
X674374Y658937D01*
X747602Y658937D02*
X747602Y665827D01*
X753114Y665827D01*
X747602Y658937D02*
X753114Y658937D01*
X826342Y658937D02*
X826342Y665827D01*
X831854Y665827D01*
X826342Y658937D02*
X831854Y658937D01*
X904689Y658937D02*
X904689Y665827D01*
X910201Y665827D01*
X904689Y658937D02*
X910201Y658937D01*
X983823Y658937D02*
X983823Y665827D01*
X989335Y665827D01*
X983823Y658937D02*
X989335Y658937D01*
X1062563Y658937D02*
X1062563Y665827D01*
X1068075Y665827D01*
X1062563Y658937D02*
X1068075Y658937D01*
X1140909Y658543D02*
X1140909Y665433D01*
X1146421Y665433D01*
X1140909Y658543D02*
X1146421Y658543D01*
X1219650Y658937D02*
X1219650Y665827D01*
X1225161Y665827D01*
X1219650Y658937D02*
X1225161Y658937D01*
X1360988Y658937D02*
X1360988Y665827D01*
X1366500Y665827D01*
X1360988Y658937D02*
X1366500Y658937D01*
X353114Y580984D02*
X353114Y587874D01*
X358626Y587874D01*
X353114Y580984D02*
X358626Y580984D01*
X441697Y580984D02*
X441697Y587874D01*
X447209Y587874D01*
X441697Y580984D02*
X447209Y580984D01*
X529886Y580984D02*
X529886Y587874D01*
X535398Y587874D01*
X529886Y580984D02*
X535398Y580984D01*
X618862Y580984D02*
X618862Y587874D01*
X624374Y587874D01*
X618862Y580984D02*
X624374Y580984D01*
X1077524Y580984D02*
X1077524Y587874D01*
X1083035Y587874D01*
X1077524Y580984D02*
X1083035Y580984D01*
X1133429Y580590D02*
X1133429Y587480D01*
X1138941Y587480D01*
X1133429Y580590D02*
X1138941Y580590D01*
X1254295Y580984D02*
X1254295Y587874D01*
X1259807Y587874D01*
X1254295Y580984D02*
X1259807Y580984D01*
X1342878Y580984D02*
X1342878Y587874D01*
X1348390Y587874D01*
X1342878Y580984D02*
X1348390Y580984D01*
X1431461Y580984D02*
X1431461Y587874D01*
X1436972Y587874D01*
X1431461Y580984D02*
X1436972Y580984D01*
D61*
X726736Y916712D02*
X726736Y914088D01*
X726211Y913563D01*
X725162Y913563D01*
X724637Y914088D01*
X724637Y916712D01*
X723588Y913563D02*
X722538Y913563D01*
X723063Y913563D01*
X723063Y916712D01*
X723588Y916187D01*
X718865Y913563D02*
X720964Y913563D01*
X718865Y915662D01*
X718865Y916187D01*
X719389Y916712D01*
X720439Y916712D01*
X720964Y916187D01*
X256133Y839415D02*
X256658Y839940D01*
X257708Y839940D01*
X258232Y839415D01*
X258232Y837316D01*
X257708Y836791D01*
X256658Y836791D01*
X256133Y837316D01*
X255084Y836791D02*
X254034Y836791D01*
X254559Y836791D01*
X254559Y839940D01*
X255084Y839415D01*
X252460Y839415D02*
X251935Y839940D01*
X250886Y839940D01*
X250361Y839415D01*
X250361Y838890D01*
X250886Y838366D01*
X250361Y837841D01*
X250361Y837316D01*
X250886Y836791D01*
X251935Y836791D01*
X252460Y837316D01*
X252460Y837841D01*
X251935Y838366D01*
X252460Y838890D01*
X252460Y839415D01*
X251935Y838366D02*
X250886Y838366D01*
X236054Y818025D02*
X236054Y820124D01*
X236579Y820649D01*
X237629Y820649D01*
X238154Y820124D01*
X238154Y818025D01*
X237629Y817500D01*
X236579Y817500D01*
X237104Y818550D02*
X236054Y817500D01*
X236579Y817500D02*
X236054Y818025D01*
X235005Y817500D02*
X233955Y817500D01*
X234480Y817500D01*
X234480Y820649D01*
X235005Y820124D01*
X203508Y881672D02*
X201409Y881672D01*
X202458Y881672D01*
X202458Y878524D01*
X200359Y878524D02*
X200359Y881672D01*
X198785Y881672D01*
X198260Y881147D01*
X198260Y880098D01*
X198785Y879573D01*
X200359Y879573D01*
X197211Y878524D02*
X196161Y878524D01*
X196686Y878524D01*
X196686Y881672D01*
X197211Y881147D01*
X194587Y881147D02*
X194062Y881672D01*
X193013Y881672D01*
X192488Y881147D01*
X192488Y879048D01*
X193013Y878524D01*
X194062Y878524D01*
X194587Y879048D01*
X194587Y881147D01*
X266894Y873799D02*
X266894Y876948D01*
X265319Y876948D01*
X264795Y876423D01*
X264795Y875373D01*
X265319Y874849D01*
X266894Y874849D01*
X265844Y874849D02*
X264795Y873799D01*
X261646Y873799D02*
X263745Y873799D01*
X261646Y875898D01*
X261646Y876423D01*
X262171Y876948D01*
X263220Y876948D01*
X263745Y876423D01*
X219650Y849782D02*
X219650Y847159D01*
X219125Y846634D01*
X218075Y846634D01*
X217550Y847159D01*
X217550Y849782D01*
X216501Y846634D02*
X215452Y846634D01*
X215976Y846634D01*
X215976Y849782D01*
X216501Y849258D01*
X213877Y846634D02*
X212828Y846634D01*
X213352Y846634D01*
X213352Y849782D01*
X213877Y849258D01*
X820700Y926948D02*
X821750Y926948D01*
X821225Y926948D01*
X821225Y924324D01*
X821750Y923799D01*
X822274Y923799D01*
X822799Y924324D01*
X817552Y926948D02*
X819651Y926948D01*
X819651Y925373D01*
X818601Y925898D01*
X818076Y925898D01*
X817552Y925373D01*
X817552Y924324D01*
X818076Y923799D01*
X819126Y923799D01*
X819651Y924324D01*
X749047Y924192D02*
X750096Y924192D01*
X749571Y924192D01*
X749571Y921568D01*
X750096Y921043D01*
X750621Y921043D01*
X751146Y921568D01*
X745898Y924192D02*
X746947Y923667D01*
X747997Y922618D01*
X747997Y921568D01*
X747472Y921043D01*
X746423Y921043D01*
X745898Y921568D01*
X745898Y922093D01*
X746423Y922618D01*
X747997Y922618D01*
X853377Y864743D02*
X854427Y864743D01*
X853902Y864743D01*
X853902Y862119D01*
X854427Y861594D01*
X854952Y861594D01*
X855476Y862119D01*
X852328Y864218D02*
X851803Y864743D01*
X850753Y864743D01*
X850229Y864218D01*
X850229Y863694D01*
X850753Y863169D01*
X851278Y863169D01*
X850753Y863169D01*
X850229Y862644D01*
X850229Y862119D01*
X850753Y861594D01*
X851803Y861594D01*
X852328Y862119D01*
X852196Y901751D02*
X853246Y901751D01*
X852721Y901751D01*
X852721Y899127D01*
X853246Y898602D01*
X853771Y898602D01*
X854295Y899127D01*
X849572Y898602D02*
X849572Y901751D01*
X851147Y900177D01*
X849048Y900177D01*
X264925Y895058D02*
X262826Y895058D01*
X263876Y895058D01*
X263876Y891909D01*
X261777Y891909D02*
X261777Y895058D01*
X260202Y895058D01*
X259678Y894533D01*
X259678Y893484D01*
X260202Y892959D01*
X261777Y892959D01*
X258628Y891909D02*
X257578Y891909D01*
X258103Y891909D01*
X258103Y895058D01*
X258628Y894533D01*
X256004Y894533D02*
X255479Y895058D01*
X254430Y895058D01*
X253905Y894533D01*
X253905Y894009D01*
X254430Y893484D01*
X254955Y893484D01*
X254430Y893484D01*
X253905Y892959D01*
X253905Y892434D01*
X254430Y891909D01*
X255479Y891909D01*
X256004Y892434D01*
X355500Y906749D02*
X355500Y903600D01*
X353926Y903600D01*
X353401Y904125D01*
X353401Y906224D01*
X353926Y906749D01*
X355500Y906749D01*
X352351Y903600D02*
X351302Y903600D01*
X351827Y903600D01*
X351827Y906749D01*
X352351Y906224D01*
X435800Y906749D02*
X435800Y903600D01*
X434226Y903600D01*
X433701Y904125D01*
X433701Y906224D01*
X434226Y906749D01*
X435800Y906749D01*
X430552Y903600D02*
X432651Y903600D01*
X430552Y905699D01*
X430552Y906224D01*
X431077Y906749D01*
X432127Y906749D01*
X432651Y906224D01*
X513700Y907049D02*
X513700Y903900D01*
X512126Y903900D01*
X511601Y904425D01*
X511601Y906524D01*
X512126Y907049D01*
X513700Y907049D01*
X510551Y906524D02*
X510027Y907049D01*
X508977Y907049D01*
X508452Y906524D01*
X508452Y905999D01*
X508977Y905474D01*
X509502Y905474D01*
X508977Y905474D01*
X508452Y904949D01*
X508452Y904425D01*
X508977Y903900D01*
X510027Y903900D01*
X510551Y904425D01*
X592100Y906749D02*
X592100Y903600D01*
X590526Y903600D01*
X590001Y904125D01*
X590001Y906224D01*
X590526Y906749D01*
X592100Y906749D01*
X587377Y903600D02*
X587377Y906749D01*
X588951Y905174D01*
X586852Y905174D01*
X671600Y906349D02*
X671600Y903200D01*
X670026Y903200D01*
X669501Y903725D01*
X669501Y905824D01*
X670026Y906349D01*
X671600Y906349D01*
X666352Y906349D02*
X668451Y906349D01*
X668451Y904774D01*
X667402Y905299D01*
X666877Y905299D01*
X666352Y904774D01*
X666352Y903725D01*
X666877Y903200D01*
X667927Y903200D01*
X668451Y903725D01*
X750400Y906749D02*
X750400Y903600D01*
X748826Y903600D01*
X748301Y904125D01*
X748301Y906224D01*
X748826Y906749D01*
X750400Y906749D01*
X745152Y906749D02*
X746202Y906224D01*
X747251Y905174D01*
X747251Y904125D01*
X746727Y903600D01*
X745677Y903600D01*
X745152Y904125D01*
X745152Y904650D01*
X745677Y905174D01*
X747251Y905174D01*
X828700Y906749D02*
X828700Y903600D01*
X827126Y903600D01*
X826601Y904125D01*
X826601Y906224D01*
X827126Y906749D01*
X828700Y906749D01*
X825551Y906749D02*
X823452Y906749D01*
X823452Y906224D01*
X825551Y904125D01*
X825551Y903600D01*
X907800Y906749D02*
X907800Y903600D01*
X906226Y903600D01*
X905701Y904125D01*
X905701Y906224D01*
X906226Y906749D01*
X907800Y906749D01*
X904651Y906224D02*
X904127Y906749D01*
X903077Y906749D01*
X902552Y906224D01*
X902552Y905699D01*
X903077Y905174D01*
X902552Y904650D01*
X902552Y904125D01*
X903077Y903600D01*
X904127Y903600D01*
X904651Y904125D01*
X904651Y904650D01*
X904127Y905174D01*
X904651Y905699D01*
X904651Y906224D01*
X904127Y905174D02*
X903077Y905174D01*
X986600Y906349D02*
X986600Y903200D01*
X985026Y903200D01*
X984501Y903725D01*
X984501Y905824D01*
X985026Y906349D01*
X986600Y906349D01*
X983451Y903725D02*
X982927Y903200D01*
X981877Y903200D01*
X981352Y903725D01*
X981352Y905824D01*
X981877Y906349D01*
X982927Y906349D01*
X983451Y905824D01*
X983451Y905299D01*
X982927Y904774D01*
X981352Y904774D01*
X1065300Y906749D02*
X1065300Y903600D01*
X1063726Y903600D01*
X1063201Y904125D01*
X1063201Y906224D01*
X1063726Y906749D01*
X1065300Y906749D01*
X1062151Y903600D02*
X1061102Y903600D01*
X1061627Y903600D01*
X1061627Y906749D01*
X1062151Y906224D01*
X1059528Y906224D02*
X1059003Y906749D01*
X1057953Y906749D01*
X1057428Y906224D01*
X1057428Y904125D01*
X1057953Y903600D01*
X1059003Y903600D01*
X1059528Y904125D01*
X1059528Y906224D01*
X1144100Y906349D02*
X1144100Y903200D01*
X1142526Y903200D01*
X1142001Y903725D01*
X1142001Y905824D01*
X1142526Y906349D01*
X1144100Y906349D01*
X1140951Y903200D02*
X1139902Y903200D01*
X1140427Y903200D01*
X1140427Y906349D01*
X1140951Y905824D01*
X1138328Y903200D02*
X1137278Y903200D01*
X1137803Y903200D01*
X1137803Y906349D01*
X1138328Y905824D01*
X1222400Y907049D02*
X1222400Y903900D01*
X1220826Y903900D01*
X1220301Y904425D01*
X1220301Y906524D01*
X1220826Y907049D01*
X1222400Y907049D01*
X1219251Y903900D02*
X1218202Y903900D01*
X1218727Y903900D01*
X1218727Y907049D01*
X1219251Y906524D01*
X1214528Y903900D02*
X1216628Y903900D01*
X1214528Y905999D01*
X1214528Y906524D01*
X1215053Y907049D01*
X1216103Y907049D01*
X1216628Y906524D01*
X1300800Y906749D02*
X1300800Y903600D01*
X1299226Y903600D01*
X1298701Y904125D01*
X1298701Y906224D01*
X1299226Y906749D01*
X1300800Y906749D01*
X1297651Y903600D02*
X1296602Y903600D01*
X1297127Y903600D01*
X1297127Y906749D01*
X1297651Y906224D01*
X1295028Y906224D02*
X1294503Y906749D01*
X1293453Y906749D01*
X1292929Y906224D01*
X1292929Y905699D01*
X1293453Y905174D01*
X1293978Y905174D01*
X1293453Y905174D01*
X1292929Y904650D01*
X1292929Y904125D01*
X1293453Y903600D01*
X1294503Y903600D01*
X1295028Y904125D01*
X1419600Y907049D02*
X1419600Y903900D01*
X1418026Y903900D01*
X1417501Y904425D01*
X1417501Y906524D01*
X1418026Y907049D01*
X1419600Y907049D01*
X1416451Y903900D02*
X1415402Y903900D01*
X1415927Y903900D01*
X1415927Y907049D01*
X1416451Y906524D01*
X1412253Y903900D02*
X1412253Y907049D01*
X1413828Y905474D01*
X1411728Y905474D01*
X373200Y828749D02*
X373200Y825600D01*
X371626Y825600D01*
X371101Y826125D01*
X371101Y828224D01*
X371626Y828749D01*
X373200Y828749D01*
X370051Y825600D02*
X369002Y825600D01*
X369527Y825600D01*
X369527Y828749D01*
X370051Y828224D01*
X365329Y828749D02*
X367428Y828749D01*
X367428Y827174D01*
X366378Y827699D01*
X365853Y827699D01*
X365329Y827174D01*
X365329Y826125D01*
X365853Y825600D01*
X366903Y825600D01*
X367428Y826125D01*
X470400Y828749D02*
X470400Y825600D01*
X468826Y825600D01*
X468301Y826125D01*
X468301Y828224D01*
X468826Y828749D01*
X470400Y828749D01*
X467251Y825600D02*
X466202Y825600D01*
X466727Y825600D01*
X466727Y828749D01*
X467251Y828224D01*
X462529Y828749D02*
X463578Y828224D01*
X464628Y827174D01*
X464628Y826125D01*
X464103Y825600D01*
X463053Y825600D01*
X462529Y826125D01*
X462529Y826649D01*
X463053Y827174D01*
X464628Y827174D01*
X549200Y828749D02*
X549200Y825600D01*
X547626Y825600D01*
X547101Y826125D01*
X547101Y828224D01*
X547626Y828749D01*
X549200Y828749D01*
X546051Y825600D02*
X545002Y825600D01*
X545527Y825600D01*
X545527Y828749D01*
X546051Y828224D01*
X543428Y828749D02*
X541328Y828749D01*
X541328Y828224D01*
X543428Y826125D01*
X543428Y825600D01*
X627500Y828749D02*
X627500Y825600D01*
X625926Y825600D01*
X625401Y826125D01*
X625401Y828224D01*
X625926Y828749D01*
X627500Y828749D01*
X624351Y825600D02*
X623302Y825600D01*
X623827Y825600D01*
X623827Y828749D01*
X624351Y828224D01*
X621728Y828224D02*
X621203Y828749D01*
X620153Y828749D01*
X619628Y828224D01*
X619628Y827699D01*
X620153Y827174D01*
X619628Y826649D01*
X619628Y826125D01*
X620153Y825600D01*
X621203Y825600D01*
X621728Y826125D01*
X621728Y826649D01*
X621203Y827174D01*
X621728Y827699D01*
X621728Y828224D01*
X621203Y827174D02*
X620153Y827174D01*
X706700Y828749D02*
X706700Y825600D01*
X705126Y825600D01*
X704601Y826125D01*
X704601Y828224D01*
X705126Y828749D01*
X706700Y828749D01*
X703551Y825600D02*
X702502Y825600D01*
X703027Y825600D01*
X703027Y828749D01*
X703551Y828224D01*
X700928Y826125D02*
X700403Y825600D01*
X699353Y825600D01*
X698829Y826125D01*
X698829Y828224D01*
X699353Y828749D01*
X700403Y828749D01*
X700928Y828224D01*
X700928Y827699D01*
X700403Y827174D01*
X698829Y827174D01*
X785000Y829149D02*
X785000Y826000D01*
X783426Y826000D01*
X782901Y826525D01*
X782901Y828624D01*
X783426Y829149D01*
X785000Y829149D01*
X779752Y826000D02*
X781851Y826000D01*
X779752Y828099D01*
X779752Y828624D01*
X780277Y829149D01*
X781327Y829149D01*
X781851Y828624D01*
X778703Y828624D02*
X778178Y829149D01*
X777129Y829149D01*
X776604Y828624D01*
X776604Y826525D01*
X777129Y826000D01*
X778178Y826000D01*
X778703Y826525D01*
X778703Y828624D01*
X864100Y827949D02*
X864100Y824800D01*
X862526Y824800D01*
X862001Y825325D01*
X862001Y827424D01*
X862526Y827949D01*
X864100Y827949D01*
X858852Y824800D02*
X860951Y824800D01*
X858852Y826899D01*
X858852Y827424D01*
X859377Y827949D01*
X860427Y827949D01*
X860951Y827424D01*
X857803Y824800D02*
X856753Y824800D01*
X857278Y824800D01*
X857278Y827949D01*
X857803Y827424D01*
X942900Y828749D02*
X942900Y825600D01*
X941326Y825600D01*
X940801Y826125D01*
X940801Y828224D01*
X941326Y828749D01*
X942900Y828749D01*
X937652Y825600D02*
X939751Y825600D01*
X937652Y827699D01*
X937652Y828224D01*
X938177Y828749D01*
X939227Y828749D01*
X939751Y828224D01*
X934504Y825600D02*
X936603Y825600D01*
X934504Y827699D01*
X934504Y828224D01*
X935028Y828749D01*
X936078Y828749D01*
X936603Y828224D01*
X1021600Y828749D02*
X1021600Y825600D01*
X1020026Y825600D01*
X1019501Y826125D01*
X1019501Y828224D01*
X1020026Y828749D01*
X1021600Y828749D01*
X1016352Y825600D02*
X1018451Y825600D01*
X1016352Y827699D01*
X1016352Y828224D01*
X1016877Y828749D01*
X1017927Y828749D01*
X1018451Y828224D01*
X1015303Y828224D02*
X1014778Y828749D01*
X1013729Y828749D01*
X1013204Y828224D01*
X1013204Y827699D01*
X1013729Y827174D01*
X1014253Y827174D01*
X1013729Y827174D01*
X1013204Y826649D01*
X1013204Y826125D01*
X1013729Y825600D01*
X1014778Y825600D01*
X1015303Y826125D01*
X1100400Y828749D02*
X1100400Y825600D01*
X1098826Y825600D01*
X1098301Y826125D01*
X1098301Y828224D01*
X1098826Y828749D01*
X1100400Y828749D01*
X1095152Y825600D02*
X1097251Y825600D01*
X1095152Y827699D01*
X1095152Y828224D01*
X1095677Y828749D01*
X1096727Y828749D01*
X1097251Y828224D01*
X1092529Y825600D02*
X1092529Y828749D01*
X1094103Y827174D01*
X1092004Y827174D01*
X1178700Y828749D02*
X1178700Y825600D01*
X1177126Y825600D01*
X1176601Y826125D01*
X1176601Y828224D01*
X1177126Y828749D01*
X1178700Y828749D01*
X1173452Y825600D02*
X1175551Y825600D01*
X1173452Y827699D01*
X1173452Y828224D01*
X1173977Y828749D01*
X1175027Y828749D01*
X1175551Y828224D01*
X1170304Y828749D02*
X1172403Y828749D01*
X1172403Y827174D01*
X1171353Y827699D01*
X1170829Y827699D01*
X1170304Y827174D01*
X1170304Y826125D01*
X1170829Y825600D01*
X1171878Y825600D01*
X1172403Y826125D01*
X1257800Y828749D02*
X1257800Y825600D01*
X1256226Y825600D01*
X1255701Y826125D01*
X1255701Y828224D01*
X1256226Y828749D01*
X1257800Y828749D01*
X1252552Y825600D02*
X1254651Y825600D01*
X1252552Y827699D01*
X1252552Y828224D01*
X1253077Y828749D01*
X1254127Y828749D01*
X1254651Y828224D01*
X1249404Y828749D02*
X1250453Y828224D01*
X1251503Y827174D01*
X1251503Y826125D01*
X1250978Y825600D01*
X1249928Y825600D01*
X1249404Y826125D01*
X1249404Y826649D01*
X1249928Y827174D01*
X1251503Y827174D01*
X1336200Y828349D02*
X1336200Y825200D01*
X1334626Y825200D01*
X1334101Y825725D01*
X1334101Y827824D01*
X1334626Y828349D01*
X1336200Y828349D01*
X1330952Y825200D02*
X1333051Y825200D01*
X1330952Y827299D01*
X1330952Y827824D01*
X1331477Y828349D01*
X1332527Y828349D01*
X1333051Y827824D01*
X1329903Y828349D02*
X1327804Y828349D01*
X1327804Y827824D01*
X1329903Y825725D01*
X1329903Y825200D01*
X1433000Y828749D02*
X1433000Y825600D01*
X1431426Y825600D01*
X1430901Y826125D01*
X1430901Y828224D01*
X1431426Y828749D01*
X1433000Y828749D01*
X1427752Y825600D02*
X1429851Y825600D01*
X1427752Y827699D01*
X1427752Y828224D01*
X1428277Y828749D01*
X1429327Y828749D01*
X1429851Y828224D01*
X1426703Y828224D02*
X1426178Y828749D01*
X1425128Y828749D01*
X1424604Y828224D01*
X1424604Y827699D01*
X1425128Y827174D01*
X1424604Y826649D01*
X1424604Y826125D01*
X1425128Y825600D01*
X1426178Y825600D01*
X1426703Y826125D01*
X1426703Y826649D01*
X1426178Y827174D01*
X1426703Y827699D01*
X1426703Y828224D01*
X1426178Y827174D02*
X1425128Y827174D01*
X383000Y750449D02*
X383000Y747300D01*
X381426Y747300D01*
X380901Y747825D01*
X380901Y749924D01*
X381426Y750449D01*
X383000Y750449D01*
X377752Y747300D02*
X379851Y747300D01*
X377752Y749399D01*
X377752Y749924D01*
X378277Y750449D01*
X379327Y750449D01*
X379851Y749924D01*
X376703Y747825D02*
X376178Y747300D01*
X375129Y747300D01*
X374604Y747825D01*
X374604Y749924D01*
X375129Y750449D01*
X376178Y750449D01*
X376703Y749924D01*
X376703Y749399D01*
X376178Y748874D01*
X374604Y748874D01*
X488200Y750749D02*
X488200Y747600D01*
X486626Y747600D01*
X486101Y748125D01*
X486101Y750224D01*
X486626Y750749D01*
X488200Y750749D01*
X485051Y750224D02*
X484527Y750749D01*
X483477Y750749D01*
X482952Y750224D01*
X482952Y749699D01*
X483477Y749174D01*
X484002Y749174D01*
X483477Y749174D01*
X482952Y748650D01*
X482952Y748125D01*
X483477Y747600D01*
X484527Y747600D01*
X485051Y748125D01*
X481903Y750224D02*
X481378Y750749D01*
X480329Y750749D01*
X479804Y750224D01*
X479804Y748125D01*
X480329Y747600D01*
X481378Y747600D01*
X481903Y748125D01*
X481903Y750224D01*
X566900Y750449D02*
X566900Y747300D01*
X565326Y747300D01*
X564801Y747825D01*
X564801Y749924D01*
X565326Y750449D01*
X566900Y750449D01*
X563751Y749924D02*
X563227Y750449D01*
X562177Y750449D01*
X561652Y749924D01*
X561652Y749399D01*
X562177Y748874D01*
X562702Y748874D01*
X562177Y748874D01*
X561652Y748350D01*
X561652Y747825D01*
X562177Y747300D01*
X563227Y747300D01*
X563751Y747825D01*
X560603Y747300D02*
X559553Y747300D01*
X560078Y747300D01*
X560078Y750449D01*
X560603Y749924D01*
X645200Y750449D02*
X645200Y747300D01*
X643626Y747300D01*
X643101Y747825D01*
X643101Y749924D01*
X643626Y750449D01*
X645200Y750449D01*
X642051Y749924D02*
X641527Y750449D01*
X640477Y750449D01*
X639952Y749924D01*
X639952Y749399D01*
X640477Y748874D01*
X641002Y748874D01*
X640477Y748874D01*
X639952Y748350D01*
X639952Y747825D01*
X640477Y747300D01*
X641527Y747300D01*
X642051Y747825D01*
X636804Y747300D02*
X638903Y747300D01*
X636804Y749399D01*
X636804Y749924D01*
X637328Y750449D01*
X638378Y750449D01*
X638903Y749924D01*
X724400Y750449D02*
X724400Y747300D01*
X722826Y747300D01*
X722301Y747825D01*
X722301Y749924D01*
X722826Y750449D01*
X724400Y750449D01*
X721251Y749924D02*
X720727Y750449D01*
X719677Y750449D01*
X719152Y749924D01*
X719152Y749399D01*
X719677Y748874D01*
X720202Y748874D01*
X719677Y748874D01*
X719152Y748350D01*
X719152Y747825D01*
X719677Y747300D01*
X720727Y747300D01*
X721251Y747825D01*
X718103Y749924D02*
X717578Y750449D01*
X716529Y750449D01*
X716004Y749924D01*
X716004Y749399D01*
X716529Y748874D01*
X717053Y748874D01*
X716529Y748874D01*
X716004Y748350D01*
X716004Y747825D01*
X716529Y747300D01*
X717578Y747300D01*
X718103Y747825D01*
X803100Y750449D02*
X803100Y747300D01*
X801526Y747300D01*
X801001Y747825D01*
X801001Y749924D01*
X801526Y750449D01*
X803100Y750449D01*
X799951Y749924D02*
X799427Y750449D01*
X798377Y750449D01*
X797852Y749924D01*
X797852Y749399D01*
X798377Y748874D01*
X798902Y748874D01*
X798377Y748874D01*
X797852Y748350D01*
X797852Y747825D01*
X798377Y747300D01*
X799427Y747300D01*
X799951Y747825D01*
X795228Y747300D02*
X795228Y750449D01*
X796803Y748874D01*
X794704Y748874D01*
X881900Y750749D02*
X881900Y747600D01*
X880326Y747600D01*
X879801Y748125D01*
X879801Y750224D01*
X880326Y750749D01*
X881900Y750749D01*
X878751Y750224D02*
X878227Y750749D01*
X877177Y750749D01*
X876652Y750224D01*
X876652Y749699D01*
X877177Y749174D01*
X877702Y749174D01*
X877177Y749174D01*
X876652Y748650D01*
X876652Y748125D01*
X877177Y747600D01*
X878227Y747600D01*
X878751Y748125D01*
X873504Y750749D02*
X875603Y750749D01*
X875603Y749174D01*
X874553Y749699D01*
X874028Y749699D01*
X873504Y749174D01*
X873504Y748125D01*
X874028Y747600D01*
X875078Y747600D01*
X875603Y748125D01*
X960600Y750749D02*
X960600Y747600D01*
X959026Y747600D01*
X958501Y748125D01*
X958501Y750224D01*
X959026Y750749D01*
X960600Y750749D01*
X957451Y750224D02*
X956927Y750749D01*
X955877Y750749D01*
X955352Y750224D01*
X955352Y749699D01*
X955877Y749174D01*
X956402Y749174D01*
X955877Y749174D01*
X955352Y748650D01*
X955352Y748125D01*
X955877Y747600D01*
X956927Y747600D01*
X957451Y748125D01*
X952204Y750749D02*
X953253Y750224D01*
X954303Y749174D01*
X954303Y748125D01*
X953778Y747600D01*
X952728Y747600D01*
X952204Y748125D01*
X952204Y748650D01*
X952728Y749174D01*
X954303Y749174D01*
X1038900Y750449D02*
X1038900Y747300D01*
X1037326Y747300D01*
X1036801Y747825D01*
X1036801Y749924D01*
X1037326Y750449D01*
X1038900Y750449D01*
X1035751Y749924D02*
X1035227Y750449D01*
X1034177Y750449D01*
X1033652Y749924D01*
X1033652Y749399D01*
X1034177Y748874D01*
X1034702Y748874D01*
X1034177Y748874D01*
X1033652Y748350D01*
X1033652Y747825D01*
X1034177Y747300D01*
X1035227Y747300D01*
X1035751Y747825D01*
X1032603Y750449D02*
X1030504Y750449D01*
X1030504Y749924D01*
X1032603Y747825D01*
X1032603Y747300D01*
X1117700Y750449D02*
X1117700Y747300D01*
X1116126Y747300D01*
X1115601Y747825D01*
X1115601Y749924D01*
X1116126Y750449D01*
X1117700Y750449D01*
X1114551Y749924D02*
X1114027Y750449D01*
X1112977Y750449D01*
X1112452Y749924D01*
X1112452Y749399D01*
X1112977Y748874D01*
X1113502Y748874D01*
X1112977Y748874D01*
X1112452Y748350D01*
X1112452Y747825D01*
X1112977Y747300D01*
X1114027Y747300D01*
X1114551Y747825D01*
X1111403Y749924D02*
X1110878Y750449D01*
X1109828Y750449D01*
X1109304Y749924D01*
X1109304Y749399D01*
X1109828Y748874D01*
X1109304Y748350D01*
X1109304Y747825D01*
X1109828Y747300D01*
X1110878Y747300D01*
X1111403Y747825D01*
X1111403Y748350D01*
X1110878Y748874D01*
X1111403Y749399D01*
X1111403Y749924D01*
X1110878Y748874D02*
X1109828Y748874D01*
X1196400Y750449D02*
X1196400Y747300D01*
X1194826Y747300D01*
X1194301Y747825D01*
X1194301Y749924D01*
X1194826Y750449D01*
X1196400Y750449D01*
X1193251Y749924D02*
X1192727Y750449D01*
X1191677Y750449D01*
X1191152Y749924D01*
X1191152Y749399D01*
X1191677Y748874D01*
X1192202Y748874D01*
X1191677Y748874D01*
X1191152Y748350D01*
X1191152Y747825D01*
X1191677Y747300D01*
X1192727Y747300D01*
X1193251Y747825D01*
X1190103Y747825D02*
X1189578Y747300D01*
X1188529Y747300D01*
X1188004Y747825D01*
X1188004Y749924D01*
X1188529Y750449D01*
X1189578Y750449D01*
X1190103Y749924D01*
X1190103Y749399D01*
X1189578Y748874D01*
X1188004Y748874D01*
X1275600Y750449D02*
X1275600Y747300D01*
X1274026Y747300D01*
X1273501Y747825D01*
X1273501Y749924D01*
X1274026Y750449D01*
X1275600Y750449D01*
X1270877Y747300D02*
X1270877Y750449D01*
X1272451Y748874D01*
X1270352Y748874D01*
X1269303Y749924D02*
X1268778Y750449D01*
X1267729Y750449D01*
X1267204Y749924D01*
X1267204Y747825D01*
X1267729Y747300D01*
X1268778Y747300D01*
X1269303Y747825D01*
X1269303Y749924D01*
X1398400Y750449D02*
X1398400Y747300D01*
X1396826Y747300D01*
X1396301Y747825D01*
X1396301Y749924D01*
X1396826Y750449D01*
X1398400Y750449D01*
X1393677Y747300D02*
X1393677Y750449D01*
X1395251Y748874D01*
X1393152Y748874D01*
X1392103Y747300D02*
X1391053Y747300D01*
X1391578Y747300D01*
X1391578Y750449D01*
X1392103Y749924D01*
X400800Y672849D02*
X400800Y669700D01*
X399226Y669700D01*
X398701Y670225D01*
X398701Y672324D01*
X399226Y672849D01*
X400800Y672849D01*
X396077Y669700D02*
X396077Y672849D01*
X397651Y671274D01*
X395552Y671274D01*
X392404Y669700D02*
X394503Y669700D01*
X392404Y671799D01*
X392404Y672324D01*
X392929Y672849D01*
X393978Y672849D01*
X394503Y672324D01*
X523600Y672849D02*
X523600Y669700D01*
X522026Y669700D01*
X521501Y670225D01*
X521501Y672324D01*
X522026Y672849D01*
X523600Y672849D01*
X518877Y669700D02*
X518877Y672849D01*
X520451Y671274D01*
X518352Y671274D01*
X517303Y672324D02*
X516778Y672849D01*
X515729Y672849D01*
X515204Y672324D01*
X515204Y671799D01*
X515729Y671274D01*
X516253Y671274D01*
X515729Y671274D01*
X515204Y670750D01*
X515204Y670225D01*
X515729Y669700D01*
X516778Y669700D01*
X517303Y670225D01*
X602300Y672849D02*
X602300Y669700D01*
X600726Y669700D01*
X600201Y670225D01*
X600201Y672324D01*
X600726Y672849D01*
X602300Y672849D01*
X597577Y669700D02*
X597577Y672849D01*
X599151Y671274D01*
X597052Y671274D01*
X594428Y669700D02*
X594428Y672849D01*
X596003Y671274D01*
X593904Y671274D01*
X681100Y672849D02*
X681100Y669700D01*
X679526Y669700D01*
X679001Y670225D01*
X679001Y672324D01*
X679526Y672849D01*
X681100Y672849D01*
X676377Y669700D02*
X676377Y672849D01*
X677951Y671274D01*
X675852Y671274D01*
X672704Y672849D02*
X674803Y672849D01*
X674803Y671274D01*
X673753Y671799D01*
X673229Y671799D01*
X672704Y671274D01*
X672704Y670225D01*
X673229Y669700D01*
X674278Y669700D01*
X674803Y670225D01*
X759800Y672849D02*
X759800Y669700D01*
X758226Y669700D01*
X757701Y670225D01*
X757701Y672324D01*
X758226Y672849D01*
X759800Y672849D01*
X755077Y669700D02*
X755077Y672849D01*
X756651Y671274D01*
X754552Y671274D01*
X751404Y672849D02*
X752453Y672324D01*
X753503Y671274D01*
X753503Y670225D01*
X752978Y669700D01*
X751929Y669700D01*
X751404Y670225D01*
X751404Y670750D01*
X751929Y671274D01*
X753503Y671274D01*
X838500Y672849D02*
X838500Y669700D01*
X836926Y669700D01*
X836401Y670225D01*
X836401Y672324D01*
X836926Y672849D01*
X838500Y672849D01*
X833777Y669700D02*
X833777Y672849D01*
X835351Y671274D01*
X833252Y671274D01*
X832203Y672849D02*
X830104Y672849D01*
X830104Y672324D01*
X832203Y670225D01*
X832203Y669700D01*
X916900Y672849D02*
X916900Y669700D01*
X915326Y669700D01*
X914801Y670225D01*
X914801Y672324D01*
X915326Y672849D01*
X916900Y672849D01*
X912177Y669700D02*
X912177Y672849D01*
X913751Y671274D01*
X911652Y671274D01*
X910603Y672324D02*
X910078Y672849D01*
X909029Y672849D01*
X908504Y672324D01*
X908504Y671799D01*
X909029Y671274D01*
X908504Y670750D01*
X908504Y670225D01*
X909029Y669700D01*
X910078Y669700D01*
X910603Y670225D01*
X910603Y670750D01*
X910078Y671274D01*
X910603Y671799D01*
X910603Y672324D01*
X910078Y671274D02*
X909029Y671274D01*
X996000Y672849D02*
X996000Y669700D01*
X994426Y669700D01*
X993901Y670225D01*
X993901Y672324D01*
X994426Y672849D01*
X996000Y672849D01*
X991277Y669700D02*
X991277Y672849D01*
X992851Y671274D01*
X990752Y671274D01*
X989703Y670225D02*
X989178Y669700D01*
X988128Y669700D01*
X987604Y670225D01*
X987604Y672324D01*
X988128Y672849D01*
X989178Y672849D01*
X989703Y672324D01*
X989703Y671799D01*
X989178Y671274D01*
X987604Y671274D01*
X1074800Y672849D02*
X1074800Y669700D01*
X1073226Y669700D01*
X1072701Y670225D01*
X1072701Y672324D01*
X1073226Y672849D01*
X1074800Y672849D01*
X1069552Y672849D02*
X1071651Y672849D01*
X1071651Y671274D01*
X1070602Y671799D01*
X1070077Y671799D01*
X1069552Y671274D01*
X1069552Y670225D01*
X1070077Y669700D01*
X1071127Y669700D01*
X1071651Y670225D01*
X1068503Y672324D02*
X1067978Y672849D01*
X1066928Y672849D01*
X1066404Y672324D01*
X1066404Y670225D01*
X1066928Y669700D01*
X1067978Y669700D01*
X1068503Y670225D01*
X1068503Y672324D01*
X1153100Y672449D02*
X1153100Y669300D01*
X1151526Y669300D01*
X1151001Y669825D01*
X1151001Y671924D01*
X1151526Y672449D01*
X1153100Y672449D01*
X1147852Y672449D02*
X1149951Y672449D01*
X1149951Y670874D01*
X1148902Y671399D01*
X1148377Y671399D01*
X1147852Y670874D01*
X1147852Y669825D01*
X1148377Y669300D01*
X1149427Y669300D01*
X1149951Y669825D01*
X1146803Y669300D02*
X1145753Y669300D01*
X1146278Y669300D01*
X1146278Y672449D01*
X1146803Y671924D01*
X1231900Y672849D02*
X1231900Y669700D01*
X1230326Y669700D01*
X1229801Y670225D01*
X1229801Y672324D01*
X1230326Y672849D01*
X1231900Y672849D01*
X1226652Y672849D02*
X1228751Y672849D01*
X1228751Y671274D01*
X1227702Y671799D01*
X1227177Y671799D01*
X1226652Y671274D01*
X1226652Y670225D01*
X1227177Y669700D01*
X1228227Y669700D01*
X1228751Y670225D01*
X1223504Y669700D02*
X1225603Y669700D01*
X1223504Y671799D01*
X1223504Y672324D01*
X1224028Y672849D01*
X1225078Y672849D01*
X1225603Y672324D01*
X1373200Y672849D02*
X1373200Y669700D01*
X1371626Y669700D01*
X1371101Y670225D01*
X1371101Y672324D01*
X1371626Y672849D01*
X1373200Y672849D01*
X1367952Y672849D02*
X1370051Y672849D01*
X1370051Y671274D01*
X1369002Y671799D01*
X1368477Y671799D01*
X1367952Y671274D01*
X1367952Y670225D01*
X1368477Y669700D01*
X1369527Y669700D01*
X1370051Y670225D01*
X1366903Y672324D02*
X1366378Y672849D01*
X1365329Y672849D01*
X1364804Y672324D01*
X1364804Y671799D01*
X1365329Y671274D01*
X1365853Y671274D01*
X1365329Y671274D01*
X1364804Y670750D01*
X1364804Y670225D01*
X1365329Y669700D01*
X1366378Y669700D01*
X1366903Y670225D01*
X365300Y594849D02*
X365300Y591700D01*
X363726Y591700D01*
X363201Y592225D01*
X363201Y594324D01*
X363726Y594849D01*
X365300Y594849D01*
X360052Y594849D02*
X362151Y594849D01*
X362151Y593274D01*
X361102Y593799D01*
X360577Y593799D01*
X360052Y593274D01*
X360052Y592225D01*
X360577Y591700D01*
X361627Y591700D01*
X362151Y592225D01*
X357429Y591700D02*
X357429Y594849D01*
X359003Y593274D01*
X356904Y593274D01*
X453900Y594849D02*
X453900Y591700D01*
X452326Y591700D01*
X451801Y592225D01*
X451801Y594324D01*
X452326Y594849D01*
X453900Y594849D01*
X448652Y594849D02*
X450751Y594849D01*
X450751Y593274D01*
X449702Y593799D01*
X449177Y593799D01*
X448652Y593274D01*
X448652Y592225D01*
X449177Y591700D01*
X450227Y591700D01*
X450751Y592225D01*
X445504Y594849D02*
X447603Y594849D01*
X447603Y593274D01*
X446553Y593799D01*
X446029Y593799D01*
X445504Y593274D01*
X445504Y592225D01*
X446029Y591700D01*
X447078Y591700D01*
X447603Y592225D01*
X542100Y594849D02*
X542100Y591700D01*
X540526Y591700D01*
X540001Y592225D01*
X540001Y594324D01*
X540526Y594849D01*
X542100Y594849D01*
X536852Y594849D02*
X538951Y594849D01*
X538951Y593274D01*
X537902Y593799D01*
X537377Y593799D01*
X536852Y593274D01*
X536852Y592225D01*
X537377Y591700D01*
X538427Y591700D01*
X538951Y592225D01*
X533704Y594849D02*
X534753Y594324D01*
X535803Y593274D01*
X535803Y592225D01*
X535278Y591700D01*
X534229Y591700D01*
X533704Y592225D01*
X533704Y592750D01*
X534229Y593274D01*
X535803Y593274D01*
X631100Y594849D02*
X631100Y591700D01*
X629526Y591700D01*
X629001Y592225D01*
X629001Y594324D01*
X629526Y594849D01*
X631100Y594849D01*
X625852Y594849D02*
X627951Y594849D01*
X627951Y593274D01*
X626902Y593799D01*
X626377Y593799D01*
X625852Y593274D01*
X625852Y592225D01*
X626377Y591700D01*
X627427Y591700D01*
X627951Y592225D01*
X624803Y594849D02*
X622704Y594849D01*
X622704Y594324D01*
X624803Y592225D01*
X624803Y591700D01*
X1089700Y594849D02*
X1089700Y591700D01*
X1088126Y591700D01*
X1087601Y592225D01*
X1087601Y594324D01*
X1088126Y594849D01*
X1089700Y594849D01*
X1084452Y594849D02*
X1086551Y594849D01*
X1086551Y593274D01*
X1085502Y593799D01*
X1084977Y593799D01*
X1084452Y593274D01*
X1084452Y592225D01*
X1084977Y591700D01*
X1086027Y591700D01*
X1086551Y592225D01*
X1083403Y594324D02*
X1082878Y594849D01*
X1081828Y594849D01*
X1081304Y594324D01*
X1081304Y593799D01*
X1081828Y593274D01*
X1081304Y592750D01*
X1081304Y592225D01*
X1081828Y591700D01*
X1082878Y591700D01*
X1083403Y592225D01*
X1083403Y592750D01*
X1082878Y593274D01*
X1083403Y593799D01*
X1083403Y594324D01*
X1082878Y593274D02*
X1081828Y593274D01*
X1145600Y594549D02*
X1145600Y591400D01*
X1144026Y591400D01*
X1143501Y591925D01*
X1143501Y594024D01*
X1144026Y594549D01*
X1145600Y594549D01*
X1140352Y594549D02*
X1142451Y594549D01*
X1142451Y592974D01*
X1141402Y593499D01*
X1140877Y593499D01*
X1140352Y592974D01*
X1140352Y591925D01*
X1140877Y591400D01*
X1141927Y591400D01*
X1142451Y591925D01*
X1139303Y591925D02*
X1138778Y591400D01*
X1137729Y591400D01*
X1137204Y591925D01*
X1137204Y594024D01*
X1137729Y594549D01*
X1138778Y594549D01*
X1139303Y594024D01*
X1139303Y593499D01*
X1138778Y592974D01*
X1137204Y592974D01*
X1266500Y594849D02*
X1266500Y591700D01*
X1264926Y591700D01*
X1264401Y592225D01*
X1264401Y594324D01*
X1264926Y594849D01*
X1266500Y594849D01*
X1261252Y594849D02*
X1262302Y594324D01*
X1263351Y593274D01*
X1263351Y592225D01*
X1262827Y591700D01*
X1261777Y591700D01*
X1261252Y592225D01*
X1261252Y592750D01*
X1261777Y593274D01*
X1263351Y593274D01*
X1260203Y594324D02*
X1259678Y594849D01*
X1258628Y594849D01*
X1258104Y594324D01*
X1258104Y592225D01*
X1258628Y591700D01*
X1259678Y591700D01*
X1260203Y592225D01*
X1260203Y594324D01*
X1355100Y594849D02*
X1355100Y591700D01*
X1353526Y591700D01*
X1353001Y592225D01*
X1353001Y594324D01*
X1353526Y594849D01*
X1355100Y594849D01*
X1349852Y594849D02*
X1350902Y594324D01*
X1351951Y593274D01*
X1351951Y592225D01*
X1351427Y591700D01*
X1350377Y591700D01*
X1349852Y592225D01*
X1349852Y592750D01*
X1350377Y593274D01*
X1351951Y593274D01*
X1348803Y591700D02*
X1347753Y591700D01*
X1348278Y591700D01*
X1348278Y594849D01*
X1348803Y594324D01*
X1443700Y594849D02*
X1443700Y591700D01*
X1442126Y591700D01*
X1441601Y592225D01*
X1441601Y594324D01*
X1442126Y594849D01*
X1443700Y594849D01*
X1438452Y594849D02*
X1439502Y594324D01*
X1440551Y593274D01*
X1440551Y592225D01*
X1440027Y591700D01*
X1438977Y591700D01*
X1438452Y592225D01*
X1438452Y592750D01*
X1438977Y593274D01*
X1440551Y593274D01*
X1435304Y591700D02*
X1437403Y591700D01*
X1435304Y593799D01*
X1435304Y594324D01*
X1435828Y594849D01*
X1436878Y594849D01*
X1437403Y594324D01*
X220306Y839415D02*
X220831Y839940D01*
X221881Y839940D01*
X222406Y839415D01*
X222406Y837316D01*
X221881Y836791D01*
X220831Y836791D01*
X220306Y837316D01*
X219257Y836791D02*
X218207Y836791D01*
X218732Y836791D01*
X218732Y839940D01*
X219257Y839415D01*
X216633Y839940D02*
X214534Y839940D01*
X214534Y839415D01*
X216633Y837316D01*
X216633Y836791D01*
X238023Y896502D02*
X238548Y897027D01*
X239597Y897027D01*
X240122Y896502D01*
X240122Y894403D01*
X239597Y893878D01*
X238548Y893878D01*
X238023Y894403D01*
X236974Y893878D02*
X235924Y893878D01*
X236449Y893878D01*
X236449Y897027D01*
X236974Y896502D01*
X234350Y894403D02*
X233825Y893878D01*
X232775Y893878D01*
X232251Y894403D01*
X232251Y896502D01*
X232775Y897027D01*
X233825Y897027D01*
X234350Y896502D01*
X234350Y895977D01*
X233825Y895452D01*
X232251Y895452D01*
X246599Y914163D02*
X244500Y914163D01*
X245550Y914163D01*
X245550Y911014D01*
X243450Y911014D02*
X243450Y914163D01*
X241876Y914163D01*
X241351Y913638D01*
X241351Y912589D01*
X241876Y912064D01*
X243450Y912064D01*
X240302Y914163D02*
X238203Y914163D01*
X238203Y913638D01*
X240302Y911539D01*
X240302Y911014D01*
X232848Y913376D02*
X230749Y913376D01*
X231798Y913376D01*
X231798Y910227D01*
X229699Y910227D02*
X229699Y913376D01*
X228125Y913376D01*
X227600Y912851D01*
X227600Y911801D01*
X228125Y911277D01*
X229699Y911277D01*
X226551Y912851D02*
X226026Y913376D01*
X224976Y913376D01*
X224452Y912851D01*
X224452Y912326D01*
X224976Y911801D01*
X224452Y911277D01*
X224452Y910752D01*
X224976Y910227D01*
X226026Y910227D01*
X226551Y910752D01*
X226551Y911277D01*
X226026Y911801D01*
X226551Y912326D01*
X226551Y912851D01*
X226026Y911801D02*
X224976Y911801D01*
X262017Y913376D02*
X259918Y913376D01*
X260967Y913376D01*
X260967Y910227D01*
X258868Y910227D02*
X258868Y913376D01*
X257294Y913376D01*
X256769Y912851D01*
X256769Y911801D01*
X257294Y911277D01*
X258868Y911277D01*
X255720Y910752D02*
X255195Y910227D01*
X254146Y910227D01*
X253621Y910752D01*
X253621Y912851D01*
X254146Y913376D01*
X255195Y913376D01*
X255720Y912851D01*
X255720Y912326D01*
X255195Y911801D01*
X253621Y911801D01*
X208433Y896840D02*
X206334Y896840D01*
X207384Y896840D01*
X207384Y893692D01*
X205285Y893692D02*
X205285Y896840D01*
X203711Y896840D01*
X203186Y896315D01*
X203186Y895266D01*
X203711Y894741D01*
X205285Y894741D01*
X202136Y893692D02*
X201087Y893692D01*
X201611Y893692D01*
X201611Y896840D01*
X202136Y896315D01*
X199512Y893692D02*
X198463Y893692D01*
X198988Y893692D01*
X198988Y896840D01*
X199512Y896315D01*
X218622Y907864D02*
X216523Y907864D01*
X217573Y907864D01*
X217573Y904715D01*
X215474Y904715D02*
X215474Y907864D01*
X213899Y907864D01*
X213375Y907339D01*
X213375Y906290D01*
X213899Y905765D01*
X215474Y905765D01*
X212325Y904715D02*
X211276Y904715D01*
X211800Y904715D01*
X211800Y907864D01*
X212325Y907339D01*
X207602Y904715D02*
X209701Y904715D01*
X207602Y906814D01*
X207602Y907339D01*
X208127Y907864D01*
X209176Y907864D01*
X209701Y907339D01*
D63*
X344354Y896240D02*
D03*
X424669Y896240D02*
D03*
X502622Y896634D02*
D03*
X580968Y896240D02*
D03*
X660496Y895847D02*
D03*
X739236Y896240D02*
D03*
X817583Y896240D02*
D03*
X896716Y896240D02*
D03*
X975457Y895846D02*
D03*
X1054197Y896240D02*
D03*
X1132937Y895846D02*
D03*
X1211283Y896634D02*
D03*
X1289630Y896240D02*
D03*
X1408527Y896634D02*
D03*
X362071Y818287D02*
D03*
X459315Y818287D02*
D03*
X538055Y818287D02*
D03*
X616402Y818287D02*
D03*
X695535Y818287D02*
D03*
X773882Y818681D02*
D03*
X853016Y817500D02*
D03*
X931756Y818287D02*
D03*
X1010496Y818287D02*
D03*
X1089236Y818287D02*
D03*
X1167583Y818287D02*
D03*
X1246716Y818287D02*
D03*
X1325063Y817894D02*
D03*
X1421913Y818287D02*
D03*
X371914Y739941D02*
D03*
X477031Y740335D02*
D03*
X555772Y739941D02*
D03*
X634118Y739941D02*
D03*
X713252Y739941D02*
D03*
X791992Y739941D02*
D03*
X870732Y740335D02*
D03*
X949472Y740335D02*
D03*
X1027819Y739941D02*
D03*
X1106559Y739941D02*
D03*
X1185299Y739941D02*
D03*
X1264433Y739941D02*
D03*
X1387268Y739941D02*
D03*
X389630Y662382D02*
D03*
X512465Y662382D02*
D03*
X591205Y662382D02*
D03*
X669945Y662382D02*
D03*
X748685Y662382D02*
D03*
X827425Y662382D02*
D03*
X905772Y662382D02*
D03*
X984906Y662382D02*
D03*
X1063646Y662382D02*
D03*
X1141992Y661988D02*
D03*
X1220732Y662382D02*
D03*
X1362071Y662382D02*
D03*
X354197Y584429D02*
D03*
X442779Y584429D02*
D03*
X530968Y584429D02*
D03*
X619945Y584429D02*
D03*
X1078606Y584429D02*
D03*
X1134512Y584035D02*
D03*
X1255378Y584429D02*
D03*
X1343961Y584429D02*
D03*
X1432543Y584429D02*
D03*
M02*
