G04 Layer_Color=128*
%FSLAX25Y25*%
%MOIN*%
G70*
G01*
G75*
G04:AMPARAMS|DCode=15|XSize=39.37mil|YSize=37.4mil|CornerRadius=0.94mil|HoleSize=0mil|Usage=FLASHONLY|Rotation=0.000|XOffset=0mil|YOffset=0mil|HoleType=Round|Shape=RoundedRectangle|*
%AMROUNDEDRECTD15*
21,1,0.03937,0.03553,0,0,0.0*
21,1,0.03750,0.03740,0,0,0.0*
1,1,0.00187,0.01875,-0.01777*
1,1,0.00187,-0.01875,-0.01777*
1,1,0.00187,-0.01875,0.01777*
1,1,0.00187,0.01875,0.01777*
%
%ADD15ROUNDEDRECTD15*%
G04:AMPARAMS|DCode=20|XSize=39.37mil|YSize=37.4mil|CornerRadius=0.94mil|HoleSize=0mil|Usage=FLASHONLY|Rotation=270.000|XOffset=0mil|YOffset=0mil|HoleType=Round|Shape=RoundedRectangle|*
%AMROUNDEDRECTD20*
21,1,0.03937,0.03553,0,0,270.0*
21,1,0.03750,0.03740,0,0,270.0*
1,1,0.00187,-0.01777,-0.01875*
1,1,0.00187,-0.01777,0.01875*
1,1,0.00187,0.01777,0.01875*
1,1,0.00187,0.01777,-0.01875*
%
%ADD20ROUNDEDRECTD20*%
%ADD23R,0.06693X0.09449*%
%ADD36C,0.00394*%
%ADD49R,0.02362X0.05709*%
G04:AMPARAMS|DCode=50|XSize=39.37mil|YSize=35.43mil|CornerRadius=0.89mil|HoleSize=0mil|Usage=FLASHONLY|Rotation=180.000|XOffset=0mil|YOffset=0mil|HoleType=Round|Shape=RoundedRectangle|*
%AMROUNDEDRECTD50*
21,1,0.03937,0.03366,0,0,180.0*
21,1,0.03760,0.03543,0,0,180.0*
1,1,0.00177,-0.01880,0.01683*
1,1,0.00177,0.01880,0.01683*
1,1,0.00177,0.01880,-0.01683*
1,1,0.00177,-0.01880,-0.01683*
%
%ADD50ROUNDEDRECTD50*%
%ADD51O,0.05315X0.02165*%
%ADD52O,0.02165X0.05315*%
G04:AMPARAMS|DCode=53|XSize=393.7mil|YSize=196.85mil|CornerRadius=4.92mil|HoleSize=0mil|Usage=FLASHONLY|Rotation=180.000|XOffset=0mil|YOffset=0mil|HoleType=Round|Shape=RoundedRectangle|*
%AMROUNDEDRECTD53*
21,1,0.39370,0.18701,0,0,180.0*
21,1,0.38386,0.19685,0,0,180.0*
1,1,0.00984,-0.19193,0.09350*
1,1,0.00984,0.19193,0.09350*
1,1,0.00984,0.19193,-0.09350*
1,1,0.00984,-0.19193,-0.09350*
%
%ADD53ROUNDEDRECTD53*%
G04:AMPARAMS|DCode=54|XSize=68.9mil|YSize=43.31mil|CornerRadius=1.08mil|HoleSize=0mil|Usage=FLASHONLY|Rotation=270.000|XOffset=0mil|YOffset=0mil|HoleType=Round|Shape=RoundedRectangle|*
%AMROUNDEDRECTD54*
21,1,0.06890,0.04114,0,0,270.0*
21,1,0.06673,0.04331,0,0,270.0*
1,1,0.00217,-0.02057,-0.03337*
1,1,0.00217,-0.02057,0.03337*
1,1,0.00217,0.02057,0.03337*
1,1,0.00217,0.02057,-0.03337*
%
%ADD54ROUNDEDRECTD54*%
D15*
X254295Y832067D02*
D03*
X254295Y825768D02*
D03*
X218862Y832067D02*
D03*
X218862Y825768D02*
D03*
D20*
X239335Y889941D02*
D03*
X233035Y889941D02*
D03*
D23*
X244256Y829705D02*
D03*
X228902Y829705D02*
D03*
D36*
X1597602Y912776D02*
X1597574Y913788D01*
X1597489Y914798D01*
X1597347Y915801D01*
X1597150Y916794D01*
X1596897Y917775D01*
X1596589Y918740D01*
X1596228Y919687D01*
X1595814Y920611D01*
X1595349Y921511D01*
X1594834Y922384D01*
X1594272Y923226D01*
X1593662Y924035D01*
X1593009Y924809D01*
X1592313Y925545D01*
X1586030Y931828D02*
X1585285Y932522D01*
X1584493Y933160D01*
X1583657Y933741D01*
X1582782Y934260D01*
X1581872Y934716D01*
X1580931Y935105D01*
X1579965Y935426D01*
X1578979Y935678D01*
X1577978Y935859D01*
X1576966Y935968D01*
X1575949Y936004D01*
X1592313Y513392D02*
X1593009Y514128D01*
X1593662Y514902D01*
X1594272Y515711D01*
X1594834Y516553D01*
X1595349Y517426D01*
X1595814Y518326D01*
X1596228Y519250D01*
X1596589Y520197D01*
X1596897Y521162D01*
X1597150Y522143D01*
X1597347Y523136D01*
X1597489Y524139D01*
X1597574Y525149D01*
X1597602Y526161D01*
X1575949Y502933D02*
X1576966Y502969D01*
X1577978Y503078D01*
X1578979Y503259D01*
X1579965Y503511D01*
X1580931Y503832D01*
X1581872Y504221D01*
X1582782Y504677D01*
X1583657Y505196D01*
X1584493Y505777D01*
X1585285Y506415D01*
X1586030Y507109D01*
X146028Y526161D02*
X146056Y525149D01*
X146141Y524139D01*
X146283Y523136D01*
X146480Y522143D01*
X146733Y521162D01*
X147041Y520197D01*
X147402Y519250D01*
X147816Y518326D01*
X148281Y517426D01*
X148796Y516553D01*
X149358Y515711D01*
X149968Y514902D01*
X150621Y514128D01*
X151317Y513392D01*
X157600Y507109D02*
X158345Y506415D01*
X159137Y505777D01*
X159973Y505196D01*
X160848Y504677D01*
X161758Y504221D01*
X162699Y503832D01*
X163664Y503511D01*
X164650Y503259D01*
X165652Y503078D01*
X166664Y502969D01*
X167681Y502933D01*
X167681Y936004D02*
X166664Y935968D01*
X165652Y935859D01*
X164650Y935678D01*
X163664Y935426D01*
X162699Y935105D01*
X161758Y934716D01*
X160848Y934260D01*
X159973Y933741D01*
X159137Y933160D01*
X158345Y932522D01*
X157600Y931828D01*
X151317Y925545D02*
X150621Y924809D01*
X149968Y924035D01*
X149358Y923226D01*
X148796Y922384D01*
X148281Y921511D01*
X147816Y920611D01*
X147402Y919687D01*
X147041Y918740D01*
X146733Y917775D01*
X146480Y916794D01*
X146283Y915801D01*
X146141Y914798D01*
X146056Y913788D01*
X146028Y912776D01*
X146028Y526161D02*
X146028Y912776D01*
X167681Y502933D02*
X1575949Y502933D01*
X1597602Y526161D02*
X1597602Y912776D01*
X167681Y936004D02*
X169256Y936004D01*
X1574374Y936004D01*
X1575949Y936004D01*
X1586030Y931828D02*
X1592313Y925545D01*
X1586030Y507109D02*
X1592313Y513392D01*
X151317Y513392D02*
X157600Y507109D01*
X151317Y925545D02*
X157600Y931828D01*
D49*
X697189Y924685D02*
D03*
X702189Y924685D02*
D03*
X707189Y924685D02*
D03*
X712189Y924685D02*
D03*
X697189Y903228D02*
D03*
X702189Y903228D02*
D03*
X707189Y903228D02*
D03*
X712189Y903228D02*
D03*
D50*
X263744Y863169D02*
D03*
X263744Y869468D02*
D03*
D51*
X252130Y853720D02*
D03*
X252130Y856870D02*
D03*
X252130Y860020D02*
D03*
X252130Y863169D02*
D03*
X252130Y866319D02*
D03*
X252130Y869468D02*
D03*
X252130Y872618D02*
D03*
X252130Y875768D02*
D03*
X219453Y875768D02*
D03*
X219453Y872618D02*
D03*
X219453Y869468D02*
D03*
X219453Y866319D02*
D03*
X219453Y863169D02*
D03*
X219453Y860020D02*
D03*
X219453Y856870D02*
D03*
X219453Y853720D02*
D03*
D52*
X246815Y881083D02*
D03*
X243665Y881083D02*
D03*
X240516Y881083D02*
D03*
X237366Y881083D02*
D03*
X234216Y881083D02*
D03*
X231067Y881083D02*
D03*
X227917Y881083D02*
D03*
X224768Y881083D02*
D03*
X224768Y848405D02*
D03*
X227917Y848405D02*
D03*
X231067Y848405D02*
D03*
X234216Y848405D02*
D03*
X237366Y848405D02*
D03*
X240516Y848405D02*
D03*
X243665Y848405D02*
D03*
X246815Y848405D02*
D03*
D53*
X852721Y849390D02*
D03*
X852721Y913957D02*
D03*
D54*
X352720Y896240D02*
D03*
X339335Y896240D02*
D03*
X433035Y896240D02*
D03*
X419650Y896240D02*
D03*
X510988Y896634D02*
D03*
X497602Y896634D02*
D03*
X589335Y896240D02*
D03*
X575949Y896240D02*
D03*
X668862Y895846D02*
D03*
X655476Y895846D02*
D03*
X747602Y896240D02*
D03*
X734216Y896240D02*
D03*
X825949Y896240D02*
D03*
X812563Y896240D02*
D03*
X905083Y896240D02*
D03*
X891697Y896240D02*
D03*
X983823Y895846D02*
D03*
X970437Y895846D02*
D03*
X1062563Y896240D02*
D03*
X1049177Y896240D02*
D03*
X1141303Y895846D02*
D03*
X1127917Y895846D02*
D03*
X1219650Y896634D02*
D03*
X1206264Y896634D02*
D03*
X1297996Y896240D02*
D03*
X1284610Y896240D02*
D03*
X1416894Y896634D02*
D03*
X1403508Y896634D02*
D03*
X370437Y818287D02*
D03*
X357051Y818287D02*
D03*
X467681Y818287D02*
D03*
X454295Y818287D02*
D03*
X546421Y818287D02*
D03*
X533035Y818287D02*
D03*
X624768Y818287D02*
D03*
X611382Y818287D02*
D03*
X703902Y818287D02*
D03*
X690516Y818287D02*
D03*
X782248Y818681D02*
D03*
X768862Y818681D02*
D03*
X861382Y817500D02*
D03*
X847996Y817500D02*
D03*
X940122Y818287D02*
D03*
X926736Y818287D02*
D03*
X1018862Y818287D02*
D03*
X1005476Y818287D02*
D03*
X1097602Y818287D02*
D03*
X1084216Y818287D02*
D03*
X1175949Y818287D02*
D03*
X1162563Y818287D02*
D03*
X1255083Y818287D02*
D03*
X1241697Y818287D02*
D03*
X1333429Y817894D02*
D03*
X1320043Y817894D02*
D03*
X1430280Y818287D02*
D03*
X1416894Y818287D02*
D03*
X380279Y739941D02*
D03*
X366894Y739941D02*
D03*
X485398Y740335D02*
D03*
X472012Y740335D02*
D03*
X564138Y739941D02*
D03*
X550752Y739941D02*
D03*
X642484Y739941D02*
D03*
X629098Y739941D02*
D03*
X721618Y739941D02*
D03*
X708232Y739941D02*
D03*
X800358Y739941D02*
D03*
X786972Y739941D02*
D03*
X879098Y740335D02*
D03*
X865713Y740335D02*
D03*
X957839Y740335D02*
D03*
X944453Y740335D02*
D03*
X1036185Y739941D02*
D03*
X1022799Y739941D02*
D03*
X1114925Y739941D02*
D03*
X1101539Y739941D02*
D03*
X1193665Y739941D02*
D03*
X1180280Y739941D02*
D03*
X1272799Y739941D02*
D03*
X1259413Y739941D02*
D03*
X1395634Y739941D02*
D03*
X1382248Y739941D02*
D03*
X397996Y662382D02*
D03*
X384610Y662382D02*
D03*
X520831Y662382D02*
D03*
X507445Y662382D02*
D03*
X599571Y662382D02*
D03*
X586185Y662382D02*
D03*
X678311Y662382D02*
D03*
X664925Y662382D02*
D03*
X757051Y662382D02*
D03*
X743665Y662382D02*
D03*
X835791Y662382D02*
D03*
X822406Y662382D02*
D03*
X914138Y662382D02*
D03*
X900752Y662382D02*
D03*
X993272Y662382D02*
D03*
X979886Y662382D02*
D03*
X1072012Y662382D02*
D03*
X1058626Y662382D02*
D03*
X1150358Y661988D02*
D03*
X1136972Y661988D02*
D03*
X1229098Y662382D02*
D03*
X1215713Y662382D02*
D03*
X1370437Y662382D02*
D03*
X1357051Y662382D02*
D03*
X362563Y584429D02*
D03*
X349177Y584429D02*
D03*
X451146Y584429D02*
D03*
X437760Y584429D02*
D03*
X539335Y584429D02*
D03*
X525949Y584429D02*
D03*
X628311Y584429D02*
D03*
X614925Y584429D02*
D03*
X1086972Y584429D02*
D03*
X1073587Y584429D02*
D03*
X1142878Y584035D02*
D03*
X1129492Y584035D02*
D03*
X1263744Y584429D02*
D03*
X1250358Y584429D02*
D03*
X1352327Y584429D02*
D03*
X1338941Y584429D02*
D03*
X1440909Y584429D02*
D03*
X1427524Y584429D02*
D03*
M02*
