M48
;Layer_Color=9474304
;FILE_FORMAT=2:4
INCH,LZ
;TYPE=PLATED
T1F00S00C0.0138
T4F00S00C0.0402
T5F00S00C0.0433
T6F00S00C0.0531
T7F00S00C0.0630
T8F00S00C0.0709
T9F00S00C0.1181
T10F00S00C0.1614
;TYPE=NON_PLATED
%
T01
X154248Y058049
X145784Y056593
X146532Y053561
X146926
X147319
X145902Y061159
X145863Y061671
Y062144
X144485Y060726
X143894Y060805
X144052Y059467
X13791Y0599
Y060293
Y060687
X137634Y061081
X135193Y059467
X134642Y055175
X134248
X133855
X133461
X126335Y059467
X118461Y059033
X114248Y059427
X109642Y059073
X108697Y058994
X106414Y058719
X103737Y058679
X091138Y056671
X089721Y055175
X090154Y054545
X088894Y055608
X088107Y0549
X085902Y054545
X08543Y054348
X084957Y053679
Y053246
X084367Y052774
X084327Y052262
X084288Y05175
X085193Y051159
X083894Y052931
X08165Y054388
X080823
X080784Y056671
X080272Y056356
X07976Y055963
X081453Y056278
X082162
X082989Y056396
X083028Y055923
X08291Y058325
X083382Y05864
X08476Y059467
X085548Y059821
X085233Y060254
X0848Y060569
X082674Y060293
X082556Y060805
X082713Y061593
X083382Y061632
X082004
X080193Y061396
X079721Y061199
X079248Y061514
X078776Y061159
X079012Y059663
X081296Y057065
X08165Y057419
X085863Y058561
X086217Y058915
X086611Y059191
X086335Y059585
X087437Y058876
X087989Y058561
X087122Y056553
X086571Y056671
X087241Y061435
X087713
X088185
X088697
X090587Y061474
X090981
X091374
X091768
X09291Y054073
X088461Y051986
X078776Y051593
X076571Y051553
Y051159
X076414Y053482
X077201Y054585
X077634Y054821
X077595Y055215
X077437Y055608
X07787Y054427
X077556Y057892
X077122Y05797
X077162Y058482
X076493Y058837
X076217Y058246
X075784Y058207
X074996Y057813
X074524
X07287
X071414Y057931
X070744Y058089
X070508Y058522
X071847Y058561
X072319Y058837
X073579Y0599
X073973
X074367
X077989Y059703
Y061711
X077595Y062419
X068264Y058246
X06787
X067477
X067083
X062792Y059467
X066374Y051711
X069209Y051474
X069642Y051789
X069839Y052262
X069524Y052616
X068894Y052656
X072122Y053482
X053894Y059467
X045075
X036217
X032437Y06049
X032162Y060766
X031886Y061041
X02541Y060982
X025115Y061278
X02476Y061593
X018028Y061986
X016099Y062104
X022437Y05549
X029485Y05675
X027162Y067262
X026807Y067616
X026493Y067931
X022398Y067419
X022831Y069073
X019721Y067892
X018894Y068325
X01728Y068128
X016847Y072222
X019209Y075215
X019721
X022477Y076238
X024721Y076474
X024642Y075884
X025272Y075018
X029367Y078049
X029839
X030311
X030823
X021178Y066081
X03976Y067262
X037989Y075018
X0485Y075057
X056374Y075018
X059918Y067262
X052044
X067792
X068697Y066317
X069091
X069485
X069878
X075666Y067262
X072122Y075018
X064209
X079996
X08787Y075057
X085863Y066199
X085351
X084878
X084406
X08354Y067262
X083697Y063758
X090587Y062537
X090981
X091374
X091768
X091374Y067262
X099288
X107162
X103579Y075018
X095744Y075057
X111453Y075018
X119288
X12287Y067262
X114996Y067222
X127241Y075018
X139524
X139996Y070293
X140469
X137004Y067262
X140941Y070293
X141453
X145744Y075254
X14604Y075549
X145863Y062616
X152831Y066278
X154524
X149327Y080726
X149406Y08238
X142989Y082852
X146886Y08738
X147241
X14165Y090687
X12976Y090648
X133304Y082813
X135548Y080923
X13602
X136493
X137004
X125469Y082852
X117556
X109721
X114091Y090608
X121926Y090687
X106217Y090648
X098304Y090687
X093815Y085844
X093973Y082852
X101847
X093422Y085844
X093028
X085902Y085687
X08539
X084918
X084445
X084406Y089939
X084878
X085351
X085863
X082556Y090648
X090469
X086099Y082774
X078185Y082892
X070351Y082852
X073225Y085923
X074721Y090648
X075744Y089821
X076256
X076807
X073185Y092459
X066847Y090608
X067752Y089663
X058894Y090648
X051059Y090687
X054603Y082852
X062437
X046729
X037004
X035193Y090687
X043264Y090648
X030036Y089663
X029524
X029052
X028579
X027004Y089073
X026532Y087931
X027359Y085411
X023619Y086317
Y086868
X022989Y091986
X017593Y090687
X017556Y089742
X017792Y086671
X01787Y083719
X017806Y081736
T04
X078763Y092144
X079763
X080763
X077768
X076768
X075768
T05
X157024Y055963
Y056947
Y057931
X15417Y053108
X153185
X152201
X022556
X021571
X020587
X02541Y055963
Y056947
Y057931
X151605Y07424
X152605
X153605
X154605
X150174Y079325
Y080325
Y081325
Y082325
Y083325
Y084325
Y085325
Y086325
Y087325
T06
X149937Y055431
X148166
Y058463
X149937
X018323
X016552
Y055431
X018323
T07
X155804Y053896
X150567
Y059998
X155804
X141882Y058435
X139382Y057435
X133024Y058435
X130524Y057435
X124166Y058435
X121666Y057435
X112059Y058435
X109559Y057435
X099953Y058435
X097453Y057435
X060583Y058435
X058083Y057435
X051725Y058435
X049225Y057435
X042867Y058435
X040367Y057435
X034008Y058435
X031508Y057435
X024189Y059998
X018953
Y053896
X024189
X035052Y06523
X037552Y06623
X03578Y074026
X03328Y073026
X043811
X046311Y074026
X051685Y073026
X054185Y074026
X059559Y073026
X062059Y074026
X057729Y06623
X055229Y06523
X049855Y06623
X047355Y06523
X063103
X065603Y06623
X070977Y06523
X073477Y06623
X075307Y073026
X077807Y074026
X069933
X067433Y073026
X083181
X085681Y074026
X091056Y073026
X093556Y074026
X089225Y06623
X086725Y06523
X081351Y06623
X078851Y06523
X094599
X097099Y06623
X102473Y06523
X104973Y06623
X106804Y073026
X109304Y074026
X10143
X09893Y073026
X114678
X117178Y074026
X122552Y073026
X120721Y06623
X118221Y06523
X112847Y06623
X110347Y06523
X132296
X134796Y06623
X134855Y073026
X137355Y074026
X125052
X1408Y081821
X1383Y080821
X131154Y081821
X128654Y080821
X12765Y089616
X12515Y088616
X136961
X139461Y089616
X119776
X117276Y088616
X111902Y089616
X109402Y088616
X112906Y080821
X115406Y081821
X12078Y080821
X12328Y081821
X107532
X105032Y080821
X099658Y081821
X097158Y080821
X096154Y089616
X101528Y088616
X104028Y089616
X093654Y088616
X08828Y089616
X08578Y088616
X080406Y089616
X08141Y080821
X08391Y081821
X089284Y080821
X091784Y081821
X076036
X073536Y080821
X068162Y081821
X065662Y080821
X064658Y089616
X070032Y088616
X072532Y089616
X077906Y088616
X062158
X056784Y089616
X054284Y088616
X04891Y089616
X049914Y080821
X052414Y081821
X057788Y080821
X060288Y081821
X04454
X04204Y080821
X034894Y081821
X032394Y080821
X033122Y089616
X038536Y088616
X041036Y089616
X04641Y088616
X030622
T08
X142882Y056435
X138882
X134024
X130024
X125166
X121166
X113059
X109059
X100953
X096953
X061583
X057583
X052725
X048725
X043867
X039867
X035008
X031008
X034552Y06423
X038552
X046855
X043311Y072026
X03678
X03278
X047311
X051185
X055185
X059059
X058729Y06423
X054729
X050855
X062603
X066603
X070477
X074477
X074807Y072026
X070933
X066933
X063059
X078807
X082682
X086681
X090556
X090225Y06423
X086225
X082351
X078351
X094099
X098099
X101973
X105973
X106304Y072026
X10243
X09843
X094556
X110304
X114178
X118178
X122052
X121721Y06423
X117721
X113847
X109847
X131796
X135796
X134355Y072026
X138355
X126052
X1418Y079821
X1378
X132154
X128154
X12865Y087616
X136461
X140461
X12465
X120776
X116776
X112902
X112406Y079821
X116406
X12028
X12428
X108532
X104532
X100658
X096658
X097154Y087616
X101028
X105028
X108902
X093154
X08928
X08528
X081406
X08091Y079821
X08491
X088784
X092784
X077036
X073036
X069162
X065162
X065658Y087616
X069532
X073532
X077406
X061658
X057784
X053784
X04991
X049414Y079821
X053414
X057288
X061288
X04554
X04154
X035894
X031894
X034122Y087616
X038036
X042036
X04591
X030122
T09
X14602Y051868
X099012
X027831
X138304Y092419
X03228
T10
X140882Y056435
X132024
X123166
X111059
X098953
X059583
X050725
X041867
X033008
X036552Y06423
X03478Y072026
X045311
X053185
X061059
X056729Y06423
X048855
X064603
X072477
X068933Y072026
X076807
X084682
X092556
X088225Y06423
X080351
X096099
X103973
X10043Y072026
X108304
X116178
X124052
X119721Y06423
X111847
X133796
X136355Y072026
X1398Y079821
X138461Y087616
X12665
X130154Y079821
X12228
X114406
X110902Y087616
X118776
X103028
X095154
X098658Y079821
X106532
X090784
X08291
X079406Y087616
X08728
X071532
X063658
X067162Y079821
X075036
X059288
X051414
X04791Y087616
X055784
X040036
X032122
X033894Y079821
X04354
M30
