G04 Layer_Color=16711935*
%FSLAX25Y25*%
%MOIN*%
G70*
G01*
G75*
%ADD36C,0.00394*%
D36*
X1597602Y912776D02*
X1597574Y913788D01*
X1597489Y914798D01*
X1597347Y915801D01*
X1597150Y916794D01*
X1596897Y917775D01*
X1596589Y918740D01*
X1596228Y919687D01*
X1595814Y920611D01*
X1595349Y921511D01*
X1594834Y922384D01*
X1594272Y923226D01*
X1593662Y924035D01*
X1593009Y924809D01*
X1592313Y925545D01*
X1586030Y931828D02*
X1585285Y932522D01*
X1584493Y933160D01*
X1583657Y933741D01*
X1582782Y934260D01*
X1581872Y934716D01*
X1580931Y935105D01*
X1579965Y935426D01*
X1578979Y935678D01*
X1577978Y935859D01*
X1576966Y935968D01*
X1575949Y936004D01*
X1592313Y513392D02*
X1593009Y514128D01*
X1593662Y514902D01*
X1594272Y515711D01*
X1594834Y516553D01*
X1595349Y517426D01*
X1595814Y518326D01*
X1596228Y519250D01*
X1596589Y520197D01*
X1596897Y521162D01*
X1597150Y522143D01*
X1597347Y523136D01*
X1597489Y524139D01*
X1597574Y525149D01*
X1597602Y526161D01*
X1575949Y502933D02*
X1576966Y502969D01*
X1577978Y503078D01*
X1578979Y503259D01*
X1579965Y503511D01*
X1580931Y503832D01*
X1581872Y504221D01*
X1582782Y504677D01*
X1583657Y505196D01*
X1584493Y505777D01*
X1585285Y506415D01*
X1586030Y507109D01*
X146028Y526161D02*
X146056Y525149D01*
X146141Y524139D01*
X146283Y523136D01*
X146480Y522143D01*
X146733Y521162D01*
X147041Y520197D01*
X147402Y519250D01*
X147816Y518326D01*
X148281Y517426D01*
X148796Y516553D01*
X149358Y515711D01*
X149968Y514902D01*
X150621Y514128D01*
X151317Y513392D01*
X157600Y507109D02*
X158345Y506415D01*
X159137Y505777D01*
X159973Y505196D01*
X160848Y504677D01*
X161758Y504221D01*
X162699Y503832D01*
X163664Y503511D01*
X164650Y503259D01*
X165652Y503078D01*
X166664Y502969D01*
X167681Y502933D01*
X167681Y936004D02*
X166664Y935968D01*
X165652Y935859D01*
X164650Y935678D01*
X163664Y935426D01*
X162699Y935105D01*
X161758Y934716D01*
X160848Y934260D01*
X159973Y933741D01*
X159137Y933160D01*
X158345Y932522D01*
X157600Y931828D01*
X151317Y925545D02*
X150621Y924809D01*
X149968Y924035D01*
X149358Y923226D01*
X148796Y922384D01*
X148281Y921511D01*
X147816Y920611D01*
X147402Y919687D01*
X147041Y918740D01*
X146733Y917775D01*
X146480Y916794D01*
X146283Y915801D01*
X146141Y914798D01*
X146056Y913788D01*
X146028Y912776D01*
X146028Y526161D02*
X146028Y912776D01*
X167681Y502933D02*
X1575949Y502933D01*
X1597602Y526161D02*
X1597602Y912776D01*
X167681Y936004D02*
X169256Y936004D01*
X1574374Y936004D01*
X1575949Y936004D01*
X1586030Y931828D02*
X1592313Y925545D01*
X1586030Y507109D02*
X1592313Y513392D01*
X151317Y513392D02*
X157600Y507109D01*
X151317Y925545D02*
X157600Y931828D01*
X1597602Y912776D02*
X1597574Y913788D01*
X1597489Y914798D01*
X1597347Y915801D01*
X1597150Y916794D01*
X1596897Y917775D01*
X1596589Y918740D01*
X1596228Y919687D01*
X1595814Y920611D01*
X1595349Y921511D01*
X1594834Y922384D01*
X1594272Y923226D01*
X1593662Y924035D01*
X1593009Y924809D01*
X1592313Y925545D01*
X1586030Y931828D02*
X1585285Y932522D01*
X1584493Y933160D01*
X1583657Y933741D01*
X1582782Y934260D01*
X1581872Y934716D01*
X1580931Y935105D01*
X1579965Y935426D01*
X1578979Y935678D01*
X1577978Y935859D01*
X1576966Y935968D01*
X1575949Y936004D01*
X1592313Y513392D02*
X1593009Y514128D01*
X1593662Y514902D01*
X1594272Y515711D01*
X1594834Y516553D01*
X1595349Y517426D01*
X1595814Y518326D01*
X1596228Y519250D01*
X1596589Y520197D01*
X1596897Y521162D01*
X1597150Y522143D01*
X1597347Y523136D01*
X1597489Y524139D01*
X1597574Y525149D01*
X1597602Y526161D01*
X1575949Y502933D02*
X1576966Y502969D01*
X1577978Y503078D01*
X1578979Y503259D01*
X1579965Y503511D01*
X1580931Y503832D01*
X1581872Y504221D01*
X1582782Y504677D01*
X1583657Y505196D01*
X1584493Y505777D01*
X1585285Y506415D01*
X1586030Y507109D01*
X146028Y526161D02*
X146056Y525149D01*
X146141Y524139D01*
X146283Y523136D01*
X146480Y522143D01*
X146733Y521162D01*
X147041Y520197D01*
X147402Y519250D01*
X147816Y518326D01*
X148281Y517426D01*
X148796Y516553D01*
X149358Y515711D01*
X149968Y514902D01*
X150621Y514128D01*
X151317Y513392D01*
X157600Y507109D02*
X158345Y506415D01*
X159137Y505777D01*
X159973Y505196D01*
X160848Y504677D01*
X161758Y504221D01*
X162699Y503832D01*
X163664Y503511D01*
X164650Y503259D01*
X165652Y503078D01*
X166664Y502969D01*
X167681Y502933D01*
X167681Y936004D02*
X166664Y935968D01*
X165652Y935859D01*
X164650Y935678D01*
X163664Y935426D01*
X162699Y935105D01*
X161758Y934716D01*
X160848Y934260D01*
X159973Y933741D01*
X159137Y933160D01*
X158345Y932522D01*
X157600Y931828D01*
X151317Y925545D02*
X150621Y924809D01*
X149968Y924035D01*
X149358Y923226D01*
X148796Y922384D01*
X148281Y921511D01*
X147816Y920611D01*
X147402Y919687D01*
X147041Y918740D01*
X146733Y917775D01*
X146480Y916794D01*
X146283Y915801D01*
X146141Y914798D01*
X146056Y913788D01*
X146028Y912776D01*
X146028Y526161D02*
X146028Y912776D01*
X167681Y502933D02*
X1575949Y502933D01*
X1597602Y526161D02*
X1597602Y912776D01*
X167681Y936004D02*
X169256Y936004D01*
X1574374Y936004D01*
X1575949Y936004D01*
X1586030Y931828D02*
X1592313Y925545D01*
X1586030Y507109D02*
X1592313Y513392D01*
X151317Y513392D02*
X157600Y507109D01*
X151317Y925545D02*
X157600Y931828D01*
M02*
